# xmcd
#
# Track frame offsets:
#	150
#	14880
#	30427
#	50447
#	65138
#	85228
#	101733
#	118929
#	137938
#	154515
#	169279
#	187450
#	204883
#	223116
#	243320
#	261466
#	279044
#	290709
#	310816
#	324598
#
# Disc length: 4503 seconds
#
# Revision: 1
# Processed by: cddbd v1.5.1PL2 Copyright (c) Steve Scherf et al.
# Submitted via: audiograbber 1.83.01
#
DISCID=3b119514
DTITLE=Sampler - Wiehnachtsstärn - s'schwiizer wiehnachtsalbum
DYEAR=2005
DGENRE=Pop
TTITLE0=Kisha - As Long As There's Christmas
TTITLE1=Polo Hofer - Dusse Schneit's
TTITLE2=Gotthard - Merry X-Mas
TTITLE3=Plüsch - Schöne Momänt
TTITLE4=Adrian Weyermann - Hallelujah
TTITLE5=Florian Ast - I Arm
TTITLE6=Aextra - Us Stärne
TTITLE7=Patent Ochsner - Los
TTITLE8=Subzonic - Wiehnachzong
TTITLE9=Marina - Remember The Night
TTITLE10=Natacha - Schwäfelhölzli
TTITLE11=Patrick Nuo - Welcome (To My Little Island)
TTITLE12=Sina - Puppilächt
TTITLE13=Toni Vescoli - Schneemaa
TTITLE14=Bo Katzman - Happy X-Mas
TTITLE15=Phon Roll - Nothing But A Child
TTITLE16=Lockstoff - Glück
TTITLE17=DJ Bobo - It's Time For Christmas
TTITLE18=Nubya - Silent Night
TTITLE19=Eric St. Michaels - Feeling Of Christmas
EXTD=
EXTT0=
EXTT1=
EXTT2=
EXTT3=
EXTT4=
EXTT5=
EXTT6=
EXTT7=
EXTT8=
EXTT9=
EXTT10=
EXTT11=
EXTT12=
EXTT13=
EXTT14=
EXTT15=
EXTT16=
EXTT17=
EXTT18=
EXTT19=
PLAYORDER=
